# Blender v2.78 (sub 0) OBJ File: 'iCEBERG.blend'
# www.blender.org
mtllib Ice00.mtl
o Cube.018_Cube.025
v -15.643991 -2.165822 -36.094280
v -15.643991 -0.421651 -36.094280
v -15.643991 -2.165822 -42.398136
v -15.643991 -0.421651 -42.398136
v -10.519056 -2.165822 -36.094284
v -10.519056 -0.421651 -36.094284
v -10.519056 -2.165822 -41.219219
v -10.519056 -0.421651 -41.219219
v -15.537305 -2.129513 -41.373146
v -16.653128 -2.169102 -39.169243
v -15.596280 -2.146804 -38.144257
v -15.629636 -2.160936 -37.119267
v -15.897072 -1.816988 -35.841202
v -15.960799 -1.468154 -35.777473
v -15.591120 -1.119319 -36.147152
v -15.968569 -0.770485 -35.769703
v -15.914278 -0.329664 -37.119267
v -16.500622 -0.470273 -38.144257
v -15.494101 -0.472663 -39.169243
v -15.646709 -0.420726 -41.373146
v -15.452527 -0.770485 -42.206669
v -15.662747 -1.119319 -42.416889
v -15.644949 -1.468154 -42.399090
v -15.785172 -1.816988 -42.539314
v -11.544043 -2.194541 -41.303604
v -12.569030 -2.128130 -41.108467
v -13.594018 -2.198625 -41.315601
v -14.619005 -2.245276 -42.631596
v -14.619005 -0.462481 -42.278160
v -13.594017 -0.397889 -42.467957
v -12.569030 -0.432503 -41.187328
v -11.544043 -0.484748 -41.421471
v -10.566383 -0.770485 -41.171890
v -10.650477 -1.119319 -41.087799
v -10.333266 -1.468154 -41.405006
v -10.649847 -1.816988 -41.088428
v -10.466813 -2.183602 -37.119270
v -10.538595 -2.159172 -38.144257
v -10.359255 -2.220207 -39.169243
v -10.171652 -2.284054 -40.194233
v -10.352514 -0.364972 -40.194233
v -10.521588 -0.422513 -39.169243
v -10.824891 -0.525736 -38.144257
v -10.477307 -0.407442 -37.119270
v -10.662910 -0.770485 -36.238136
v -10.661839 -1.119319 -36.237064
v -10.576976 -1.468154 -36.152203
v -10.327715 -1.816988 -35.902943
v -14.619005 -2.037562 -36.471149
v -13.594018 -2.144571 -36.156727
v -12.569030 -2.223920 -35.923573
v -11.544043 -2.100280 -36.286865
v -11.544043 -0.360445 -35.914440
v -12.569030 -0.395870 -36.018528
v -13.594018 -0.382285 -35.978615
v -14.619005 -0.323406 -35.805607
v -11.544043 -0.487093 -40.194229
v -11.544043 -0.308583 -39.169243
v -11.544043 -0.463158 -38.144257
v -11.544043 -0.372181 -37.119270
v -12.569030 -0.413617 -40.194229
v -12.569030 -0.316179 -39.169243
v -12.569030 -0.454096 -38.144257
v -12.569030 -0.433255 -37.119270
v -13.594018 -0.368465 -40.194229
v -13.594018 -0.311797 -39.169243
v -13.594018 -0.530969 -38.144257
v -13.594018 -0.536336 -37.119270
v -14.619005 -0.408504 -40.194229
v -14.619005 -0.394697 -39.169243
v -14.619005 -0.414007 -38.144257
v -14.619005 -0.506610 -37.119270
v -14.619005 -2.189125 -40.207977
v -14.619005 -2.093691 -39.169243
v -14.619005 -2.015964 -38.144257
v -14.619005 -2.183032 -37.119270
v -13.594018 -1.998975 -40.194229
v -13.594018 -2.102403 -39.169243
v -13.594018 -2.237124 -38.144257
v -13.594018 -2.137366 -37.119270
v -12.569030 -2.033279 -40.194229
v -12.569030 -2.105657 -39.169243
v -12.569030 -2.149227 -38.144257
v -12.569030 -2.076073 -37.119270
v -11.544043 -2.243537 -40.194229
v -11.544043 -2.121193 -39.169243
v -11.544043 -2.163958 -38.144257
v -11.544043 -2.082443 -37.119270
v -11.544043 -1.816988 -36.451340
v -12.569030 -1.816988 -36.222908
v -13.594018 -1.816988 -36.373611
v -14.619005 -1.816988 -35.652557
v -11.544043 -1.468154 -36.362049
v -12.569030 -1.468154 -36.107208
v -13.594018 -1.468154 -35.988777
v -14.619005 -1.468154 -36.081936
v -11.544043 -1.119319 -36.121136
v -12.569030 -1.119319 -35.873463
v -13.594018 -1.119319 -36.406784
v -14.619005 -1.119319 -36.339409
v -11.544043 -0.770485 -36.227341
v -12.569030 -0.770485 -36.317207
v -13.594018 -0.770485 -36.075100
v -14.619005 -0.770485 -35.977489
v -10.207819 -1.816988 -40.194233
v -10.526192 -1.816988 -39.169243
v -10.932868 -1.816988 -38.144257
v -10.232026 -1.816988 -37.119270
v -9.755692 -1.468154 -40.194233
v -10.054369 -1.468154 -39.169243
v -10.712130 -1.468154 -38.144257
v -10.740854 -1.468154 -37.119270
v -10.844867 -1.119319 -40.194233
v -10.466243 -1.119319 -39.169243
v -10.317712 -1.119319 -38.144257
v -10.837518 -1.119319 -37.119270
v -10.779248 -0.770485 -40.194233
v -10.386698 -0.770485 -39.169243
v -10.708722 -0.770485 -38.144257
v -10.669106 -0.770485 -37.119270
v -14.619005 -1.816988 -42.008400
v -13.594018 -1.816988 -41.450386
v -12.569030 -1.816988 -41.575077
v -11.544043 -1.816988 -40.973705
v -14.619005 -1.468154 -42.266953
v -13.594018 -1.468154 -41.296448
v -12.569030 -1.468154 -40.971539
v -11.544043 -1.468154 -41.678139
v -14.619005 -1.119319 -43.001087
v -13.594017 -1.119319 -41.961884
v -12.569030 -1.119319 -40.777199
v -11.544043 -1.119319 -41.884487
v -14.619005 -0.770485 -42.548336
v -13.594017 -0.770485 -42.670486
v -12.569030 -0.770485 -41.111156
v -11.544043 -0.770485 -42.453804
v -15.568177 -1.816988 -37.119267
v -15.976014 -1.816988 -38.144257
v -17.045120 -1.816988 -39.169243
v -15.877018 -1.816988 -41.373146
v -15.554987 -1.468154 -37.119267
v -16.289900 -1.468154 -38.144257
v -16.592854 -1.468154 -39.169243
v -15.575191 -1.468154 -41.373146
v -16.020149 -1.119319 -37.119267
v -16.683498 -1.119319 -38.144253
v -15.940628 -1.119319 -39.169243
v -15.580366 -1.119319 -41.373146
v -15.355554 -0.770485 -37.119267
v -17.208126 -0.770485 -38.144253
v -15.040270 -0.770485 -39.169243
v -15.345324 -0.770485 -41.373146
vn -0.8222 -0.5673 0.0465
vn 0.3591 0.7766 -0.5176
vn 0.9033 -0.4287 0.0137
vn -0.0418 0.2047 0.9779
vn -0.0788 -0.9969 -0.0022
vn 0.0393 0.9983 -0.0435
vn 0.0462 0.9989 0.0020
vn -0.0459 0.9987 -0.0213
vn -0.0451 0.9954 -0.0850
vn 0.0313 0.9902 -0.1361
vn -0.0816 0.9965 -0.0180
vn -0.0037 0.9982 -0.0592
vn 0.0999 0.9853 0.1387
vn 0.0544 0.9924 -0.1105
vn 0.0604 0.9981 -0.0074
vn 0.0318 0.9906 -0.1333
vn 0.0007 0.9900 0.1413
vn -0.0253 0.9982 -0.0544
vn 0.0481 0.9987 -0.0148
vn 0.0241 0.9969 -0.0749
vn -0.0348 0.9846 0.1715
vn -0.0874 0.9961 -0.0075
vn -0.0527 0.9984 -0.0191
vn -0.0598 0.9976 -0.0343
vn 0.0165 0.9932 0.1155
vn 0.0713 0.9963 0.0476
vn 0.0251 0.9995 -0.0176
vn -0.0563 0.9983 0.0144
vn -0.0486 0.9987 -0.0156
vn 0.0379 0.9987 -0.0342
vn 0.0674 -0.9942 0.0841
vn -0.0429 -0.9954 0.0854
vn -0.0006 -0.9974 -0.0717
vn 0.0425 -0.9958 -0.0813
vn -0.0853 -0.9959 0.0293
vn -0.0013 -0.9999 0.0168
vn 0.0683 -0.9976 0.0135
vn 0.0544 -0.9947 -0.0870
vn 0.0684 -0.9951 0.0718
vn 0.0882 -0.9961 -0.0039
vn -0.1114 -0.9934 -0.0276
vn -0.0853 -0.9958 -0.0327
vn 0.0030 -0.9897 0.1432
vn -0.0183 -0.9962 -0.0854
vn 0.0411 -0.9954 -0.0866
vn 0.0723 -0.9939 0.0838
vn -0.1316 -0.9910 0.0225
vn -0.1095 -0.9937 0.0242
vn -0.0147 -0.9990 -0.0421
vn -0.0103 -0.9971 0.0752
vn -0.0022 -0.9970 -0.0778
vn -0.0543 -0.9949 0.0854
vn -0.0430 -0.9991 0.0051
vn -0.0462 -0.9985 0.0294
vn 0.0880 -0.8709 0.4835
vn 0.0391 0.4667 0.8836
vn 0.1665 0.6089 0.7755
vn 0.1230 -0.6897 0.7136
vn -0.3120 0.0541 0.9485
vn 0.2017 0.5463 0.8130
vn -0.1298 0.5701 0.8112
vn 0.0946 -0.7359 0.6704
vn -0.3264 0.0989 0.9400
vn 0.2206 -0.2750 0.9358
vn -0.0128 -0.5829 0.8125
vn 0.2923 0.0609 0.9544
vn -0.0494 -0.2237 0.9734
vn 0.1986 -0.5513 0.8103
vn -0.1920 0.2506 0.9489
vn -0.0090 0.6956 0.7184
vn 0.0709 0.1517 0.9859
vn 0.0603 0.6179 0.7839
vn -0.1389 0.1571 0.9778
vn 0.0570 -0.7039 0.7080
vn 0.0681 -0.5239 0.8490
vn -0.0639 -0.6135 0.7871
vn 0.1183 -0.4567 0.8817
vn 0.1161 -0.3038 0.9456
vn 0.8504 -0.5226 0.0603
vn 0.6808 0.7322 -0.0213
vn 0.9577 0.2278 -0.1758
vn 0.9675 -0.2322 -0.0998
vn 0.9025 0.2418 -0.3563
vn 0.9484 0.2213 0.2272
vn 0.7818 0.5886 0.2060
vn 0.9164 0.2062 -0.3429
vn 0.5792 -0.7654 -0.2805
vn 0.5929 -0.7852 0.1785
vn 0.6659 -0.6610 0.3458
vn 0.8846 0.3653 -0.2900
vn 0.4288 0.9000 -0.0781
vn 0.4214 0.9067 -0.0164
vn 0.9702 0.0243 0.2410
vn 0.8931 -0.3812 0.2390
vn 0.9610 -0.1810 0.2091
vn 0.9187 -0.1912 -0.3456
vn 0.9104 0.4064 0.0771
vn 0.9298 0.2967 0.2178
vn 0.8472 -0.5302 0.0346
vn 0.9267 -0.3589 -0.1111
vn 0.8818 0.3735 0.2878
vn 0.9766 -0.1215 -0.1774
vn -0.0213 0.5327 -0.8460
vn 0.0418 -0.8309 -0.5548
vn 0.4280 0.3284 -0.8420
vn 0.6042 -0.5823 -0.5439
vn 0.1324 0.5397 -0.8314
vn 0.6106 0.4089 -0.6782
vn 0.0528 -0.6546 -0.7541
vn 0.1848 -0.1914 -0.9640
vn 0.2827 -0.2154 -0.9347
vn 0.5935 -0.1194 -0.7959
vn 0.0660 0.7339 -0.6760
vn -0.0507 -0.1429 -0.9884
vn -0.1465 -0.7269 -0.6709
vn 0.4007 -0.8200 -0.4087
vn 0.5209 -0.4777 -0.7074
vn -0.6626 -0.0129 -0.7489
vn -0.3150 0.7019 -0.6388
vn 0.3872 -0.3174 -0.8656
vn 0.5971 -0.6666 -0.4461
vn -0.5899 -0.6391 -0.4936
vn -0.1162 0.0847 -0.9896
vn -0.1415 0.5647 -0.8131
vn 0.8071 0.1034 -0.5813
vn -0.3705 0.7779 -0.5075
vn -0.8102 -0.5859 0.0152
vn -0.8439 0.5364 -0.0085
vn -0.9968 -0.0310 0.0733
vn -0.8514 0.5175 0.0860
vn -0.9660 -0.2144 -0.1444
vn -0.8925 -0.4216 0.1601
vn -0.5438 -0.6154 0.5706
vn -0.6336 -0.6976 -0.3346
vn -0.9619 -0.0450 -0.2697
vn -0.8174 -0.3523 0.4557
vn -0.8200 0.1626 0.5488
vn -0.6436 0.6956 -0.3191
vn -0.9914 -0.1304 0.0099
vn -0.5793 -0.7130 0.3951
vn -0.9192 0.3408 -0.1973
vn -0.7147 0.6628 -0.2234
vn -0.9080 0.4127 -0.0720
vn -0.6267 0.1257 0.7691
vn -0.5500 0.2962 -0.7809
vn -0.5235 0.8520 -0.0066
vn -0.9302 -0.3363 -0.1473
vn -0.6424 0.1290 0.7554
vn -0.5286 0.2242 -0.8187
vn -0.6498 -0.7578 0.0585
usemtl None
s off
f 152//1 20//1 4//1 21//1
f 136//2 32//2 8//2 33//2
f 120//3 44//3 6//3 45//3
f 104//4 56//4 2//4 16//4
f 88//5 37//5 5//5 52//5
f 72//6 17//6 2//6 56//6
f 44//7 60//7 53//7 6//7
f 60//8 64//8 54//8 53//8
f 64//9 68//9 55//9 54//9
f 68//10 72//10 56//10 55//10
f 8//11 32//11 57//11 41//11
f 41//12 57//12 58//12 42//12
f 42//13 58//13 59//13 43//13
f 43//14 59//14 60//14 44//14
f 32//15 31//15 61//15 57//15
f 57//16 61//16 62//16 58//16
f 58//17 62//17 63//17 59//17
f 59//18 63//18 64//18 60//18
f 31//19 30//19 65//19 61//19
f 61//20 65//20 66//20 62//20
f 62//21 66//21 67//21 63//21
f 63//22 67//22 68//22 64//22
f 30//23 29//23 69//23 65//23
f 65//24 69//24 70//24 66//24
f 66//25 70//25 71//25 67//25
f 67//26 71//26 72//26 68//26
f 29//27 4//27 20//27 69//27
f 69//28 20//28 19//28 70//28
f 70//29 19//29 18//29 71//29
f 71//30 18//30 17//30 72//30
f 12//31 76//31 49//31 1//31
f 76//32 80//32 50//32 49//32
f 80//33 84//33 51//33 50//33
f 84//34 88//34 52//34 51//34
f 3//35 28//35 73//35 9//35
f 9//36 73//36 74//36 10//36
f 10//37 74//37 75//37 11//37
f 11//38 75//38 76//38 12//38
f 28//39 27//39 77//39 73//39
f 73//40 77//40 78//40 74//40
f 74//41 78//41 79//41 75//41
f 75//42 79//42 80//42 76//42
f 27//43 26//43 81//43 77//43
f 77//44 81//44 82//44 78//44
f 78//45 82//45 83//45 79//45
f 79//46 83//46 84//46 80//46
f 26//47 25//47 85//47 81//47
f 81//48 85//48 86//48 82//48
f 82//49 86//49 87//49 83//49
f 83//50 87//50 88//50 84//50
f 25//51 7//51 40//51 85//51
f 85//52 40//52 39//52 86//52
f 86//53 39//53 38//53 87//53
f 87//54 38//54 37//54 88//54
f 49//55 92//55 13//55 1//55
f 92//56 96//56 14//56 13//56
f 96//57 100//57 15//57 14//57
f 100//58 104//58 16//58 15//58
f 5//59 48//59 89//59 52//59
f 52//60 89//60 90//60 51//60
f 51//61 90//61 91//61 50//61
f 50//62 91//62 92//62 49//62
f 48//63 47//63 93//63 89//63
f 89//64 93//64 94//64 90//64
f 90//65 94//65 95//65 91//65
f 91//66 95//66 96//66 92//66
f 47//67 46//67 97//67 93//67
f 93//68 97//68 98//68 94//68
f 94//69 98//69 99//69 95//69
f 95//70 99//70 100//70 96//70
f 46//71 45//71 101//71 97//71
f 97//72 101//72 102//72 98//72
f 98//73 102//73 103//73 99//73
f 99//74 103//74 104//74 100//74
f 45//75 6//75 53//75 101//75
f 101//76 53//76 54//76 102//76
f 102//77 54//77 55//77 103//77
f 103//78 55//78 56//78 104//78
f 37//79 108//79 48//79 5//79
f 108//80 112//80 47//80 48//80
f 112//81 116//81 46//81 47//81
f 116//82 120//82 45//82 46//82
f 7//83 36//83 105//83 40//83
f 40//84 105//84 106//84 39//84
f 39//85 106//85 107//85 38//85
f 38//86 107//86 108//86 37//86
f 36//87 35//87 109//87 105//87
f 105//88 109//88 110//88 106//88
f 106//89 110//89 111//89 107//89
f 107//90 111//90 112//90 108//90
f 35//91 34//91 113//91 109//91
f 109//92 113//92 114//92 110//92
f 110//93 114//93 115//93 111//93
f 111//94 115//94 116//94 112//94
f 34//95 33//95 117//95 113//95
f 113//96 117//96 118//96 114//96
f 114//97 118//97 119//97 115//97
f 115//98 119//98 120//98 116//98
f 33//99 8//99 41//99 117//99
f 117//100 41//100 42//100 118//100
f 118//101 42//101 43//101 119//101
f 119//102 43//102 44//102 120//102
f 25//103 124//103 36//103 7//103
f 124//104 128//104 35//104 36//104
f 128//105 132//105 34//105 35//105
f 132//106 136//106 33//106 34//106
f 3//107 24//107 121//107 28//107
f 28//108 121//108 122//108 27//108
f 27//109 122//109 123//109 26//109
f 26//110 123//110 124//110 25//110
f 24//111 23//111 125//111 121//111
f 121//112 125//112 126//112 122//112
f 122//113 126//113 127//113 123//113
f 123//114 127//114 128//114 124//114
f 23//115 22//115 129//115 125//115
f 125//116 129//116 130//116 126//116
f 126//117 130//117 131//117 127//117
f 127//118 131//118 132//118 128//118
f 22//119 21//119 133//119 129//119
f 129//120 133//120 134//120 130//120
f 130//121 134//121 135//121 131//121
f 131//122 135//122 136//122 132//122
f 21//123 4//123 29//123 133//123
f 133//124 29//124 30//124 134//124
f 134//125 30//125 31//125 135//125
f 135//126 31//126 32//126 136//126
f 9//127 140//127 24//127 3//127
f 140//128 144//128 23//128 24//128
f 144//129 148//129 22//129 23//129
f 148//130 152//130 21//130 22//130
f 1//131 13//131 137//131 12//131
f 12//132 137//132 138//132 11//132
f 11//133 138//133 139//133 10//133
f 10//134 139//134 140//134 9//134
f 13//135 14//135 141//135 137//135
f 137//136 141//136 142//136 138//136
f 138//137 142//137 143//137 139//137
f 139//138 143//138 144//138 140//138
f 14//139 15//139 145//139 141//139
f 141//140 145//140 146//140 142//140
f 142//141 146//141 147//141 143//141
f 143//142 147//142 148//142 144//142
f 15//143 16//143 149//143 145//143
f 145//144 149//144 150//144 146//144
f 146//145 150//145 151//145 147//145
f 147//146 151//146 152//146 148//146
f 16//147 2//147 17//147 149//147
f 149//148 17//148 18//148 150//148
f 150//149 18//149 19//149 151//149
f 151//150 19//150 20//150 152//150
