# This file uses centimeters as units for non-parametric coordinates.

mtllib log2.mtl
g default
v -1.936184 0.155636 -0.423836
v -1.969277 0.099906 -0.459133
v -2.015227 0.059986 -0.510111
v -2.069537 0.039784 -0.571779
v -2.126890 0.041277 -0.638102
v -2.181672 0.064320 -0.702586
v -2.228521 0.106656 -0.758920
v -2.262850 0.164142 -0.801589
v -2.281300 0.231150 -0.826417
v -2.282065 0.301121 -0.830973
v -2.265069 0.367206 -0.814812
v -2.231976 0.422936 -0.779514
v -2.186025 0.462856 -0.728536
v -2.131716 0.483058 -0.666868
v -2.072664 0.448439 -0.600118
v -2.019580 0.458522 -0.536061
v -1.960336 0.380469 -0.485131
v -1.938402 0.358701 -0.437058
v -1.894485 0.286313 -0.479538
v -1.919188 0.221721 -0.407674
v 0.579698 0.041287 -2.602046
v 0.546605 -0.014443 -2.637343
v 0.500655 -0.054363 -2.688321
v 0.446345 -0.074565 -2.749989
v 0.388992 -0.073071 -2.816312
v 0.334210 -0.050029 -2.880796
v 0.287361 -0.007693 -2.937130
v 0.253032 0.049793 -2.979799
v 0.234582 0.116801 -3.004627
v 0.233817 0.186772 -3.009183
v 0.250814 0.252857 -2.993022
v 0.283907 0.308587 -2.957724
v 0.329857 0.348507 -2.906746
v 0.384167 0.368709 -2.845078
v 0.443218 0.334090 -2.778328
v 0.496302 0.344173 -2.714271
v 0.555546 0.266120 -2.663341
v 0.577480 0.244352 -2.615268
v 0.621397 0.171964 -2.657748
v 0.596694 0.107372 -2.585884
v -2.100626 0.261421 -0.619324
v 0.415256 0.147072 -2.797534
vt 0.648603 0.107966
vt 0.626409 0.064408
vt 0.591842 0.029841
vt 0.548284 0.007647
vt 0.500000 -0.000000
vt 0.451716 0.007647
vt 0.408159 0.029841
vt 0.373591 0.064409
vt 0.351397 0.107966
vt 0.343750 0.156250
vt 0.351397 0.204534
vt 0.373591 0.248091
vt 0.408159 0.282659
vt 0.451716 0.304853
vt 0.500000 0.312500
vt 0.548284 0.304853
vt 0.591841 0.282659
vt 0.626409 0.248091
vt 0.648603 0.204534
vt 0.656250 0.156250
vt 0.375000 0.312500
vt 0.387500 0.312500
vt 0.400000 0.312500
vt 0.412500 0.312500
vt 0.425000 0.312500
vt 0.437500 0.312500
vt 0.450000 0.312500
vt 0.462500 0.312500
vt 0.475000 0.312500
vt 0.487500 0.312500
vt 0.500000 0.312500
vt 0.512500 0.312500
vt 0.525000 0.312500
vt 0.537500 0.312500
vt 0.550000 0.312500
vt 0.562500 0.312500
vt 0.575000 0.312500
vt 0.587500 0.312500
vt 0.600000 0.312500
vt 0.612500 0.312500
vt 0.625000 0.312500
vt 0.375000 0.688440
vt 0.387500 0.688440
vt 0.400000 0.688440
vt 0.412500 0.688440
vt 0.425000 0.688440
vt 0.437500 0.688440
vt 0.450000 0.688440
vt 0.462500 0.688440
vt 0.475000 0.688440
vt 0.487500 0.688440
vt 0.500000 0.688440
vt 0.512500 0.688440
vt 0.525000 0.688440
vt 0.537500 0.688440
vt 0.550000 0.688440
vt 0.562500 0.688440
vt 0.575000 0.688440
vt 0.587500 0.688440
vt 0.600000 0.688440
vt 0.612500 0.688440
vt 0.625000 0.688440
vt 0.648603 0.795466
vt 0.626409 0.751908
vt 0.591842 0.717341
vt 0.548284 0.695147
vt 0.500000 0.687500
vt 0.451716 0.695147
vt 0.408159 0.717341
vt 0.373591 0.751909
vt 0.351397 0.795466
vt 0.343750 0.843750
vt 0.351397 0.892034
vt 0.373591 0.935591
vt 0.408159 0.970159
vt 0.451716 0.992353
vt 0.500000 1.000000
vt 0.548284 0.992353
vt 0.591841 0.970159
vt 0.626409 0.935591
vt 0.648603 0.892034
vt 0.656250 0.843750
vt 0.500000 0.150000
vt 0.500000 0.837500
vn 0.551033 -0.506675 0.663055
vn 0.394415 -0.773472 0.496164
vn 0.394415 -0.773472 0.496164
vn 0.551033 -0.506675 0.663055
vn 0.218430 -0.928264 0.301023
vn 0.218430 -0.928264 0.301023
vn 0.045898 -0.993395 0.105164
vn 0.045898 -0.993395 0.105164
vn -0.118040 -0.989416 -0.084398
vn -0.118040 -0.989416 -0.084398
vn -0.274562 -0.923276 -0.268657
vn -0.274562 -0.923276 -0.268657
vn -0.423170 -0.787877 -0.447410
vn -0.423170 -0.787877 -0.447410
vn -0.554207 -0.565907 -0.610413
vn -0.554207 -0.565907 -0.610413
vn -0.640816 -0.245893 -0.727249
vn -0.640816 -0.245893 -0.727249
vn -0.644341 0.140986 -0.751630
vn -0.644341 0.140986 -0.751630
vn -0.551033 0.506677 -0.663055
vn -0.551033 0.506677 -0.663055
vn -0.394415 0.773472 -0.496164
vn -0.394415 0.773472 -0.496164
vn -0.218430 0.928264 -0.301023
vn -0.218430 0.928264 -0.301023
vn 0.080280 0.995952 0.040441
vn 0.080766 0.995889 0.041005
vn 0.118014 0.989421 0.084367
vn 0.118066 0.989410 0.084428
vn 0.276640 0.921933 0.271127
vn 0.279436 0.920104 0.274453
vn 0.422580 0.788603 0.446690
vn 0.423781 0.787125 0.448155
vn 0.589578 0.470876 0.656257
vn 0.598820 0.441051 0.668497
vn 0.640837 0.245742 0.727281
vn 0.640792 0.246068 0.727211
vn 0.654128 0.092909 0.750656
vn 0.652535 0.127130 0.747018
vn -0.755573 0.034341 0.654163
vn -0.755573 0.034341 0.654163
vn -0.734287 0.041173 0.677590
vn -0.755573 0.034341 0.654163
vn -0.755573 0.034341 0.654163
vn -0.755573 0.034341 0.654163
vn -0.755573 0.034341 0.654163
vn -0.755573 0.034341 0.654163
vn -0.755573 0.034341 0.654163
vn -0.755573 0.034341 0.654163
vn -0.755573 0.034341 0.654163
vn -0.755573 0.034341 0.654163
vn -0.755573 0.034341 0.654163
vn -0.755573 0.034341 0.654163
vn -0.748708 0.036957 0.661869
vn -0.754620 0.045608 0.654575
vn -0.711240 -0.004491 0.702935
vn -0.733056 0.106644 0.671756
vn -0.580922 -0.379956 0.719835
vn -0.566493 0.093687 0.818724
vn -0.655083 0.405363 0.637611
vn 0.755573 -0.034341 -0.654163
vn 0.755573 -0.034341 -0.654163
vn 0.734287 -0.041173 -0.677590
vn 0.755573 -0.034341 -0.654163
vn 0.755573 -0.034341 -0.654163
vn 0.755573 -0.034341 -0.654163
vn 0.755573 -0.034341 -0.654163
vn 0.755573 -0.034341 -0.654163
vn 0.755573 -0.034341 -0.654163
vn 0.755573 -0.034341 -0.654163
vn 0.755573 -0.034341 -0.654163
vn 0.755573 -0.034341 -0.654163
vn 0.755573 -0.034341 -0.654163
vn 0.755573 -0.034341 -0.654163
vn 0.748708 -0.036958 -0.661869
vn 0.754620 -0.045609 -0.654575
vn 0.711241 0.004490 -0.702934
vn 0.733056 -0.106645 -0.671756
vn 0.580922 0.379956 -0.719836
vn 0.566493 -0.093686 -0.818724
vn 0.655083 -0.405362 -0.637611
s 1
g pCylinder2
usemtl initialShadingGroup
f 1/21/1 2/22/2 22/43/3 21/42/4
f 2/22/2 3/23/5 23/44/6 22/43/3
f 3/23/5 4/24/7 24/45/8 23/44/6
f 4/24/7 5/25/9 25/46/10 24/45/8
f 5/25/9 6/26/11 26/47/12 25/46/10
f 6/26/11 7/27/13 27/48/14 26/47/12
f 7/27/13 8/28/15 28/49/16 27/48/14
f 8/28/15 9/29/17 29/50/18 28/49/16
f 9/29/17 10/30/19 30/51/20 29/50/18
f 10/30/19 11/31/21 31/52/22 30/51/20
f 11/31/21 12/32/23 32/53/24 31/52/22
f 12/32/23 13/33/25 33/54/26 32/53/24
f 13/33/25 14/34/27 34/55/28 33/54/26
f 14/34/27 15/35/29 35/56/30 34/55/28
f 15/35/29 16/36/31 36/57/32 35/56/30
f 16/36/31 17/37/33 37/58/34 36/57/32
f 17/37/33 18/38/35 38/59/36 37/58/34
f 18/38/35 19/39/37 39/60/38 38/59/36
f 19/39/37 20/40/39 40/61/40 39/60/38
f 20/40/39 1/41/1 21/62/4 40/61/40
s 2
f 2/2/41 1/1/42 41/83/43
f 3/3/44 2/2/41 41/83/43
f 4/4/45 3/3/44 41/83/43
f 5/5/46 4/4/45 41/83/43
f 6/6/47 5/5/46 41/83/43
f 7/7/48 6/6/47 41/83/43
f 8/8/49 7/7/48 41/83/43
f 9/9/50 8/8/49 41/83/43
f 10/10/51 9/9/50 41/83/43
f 11/11/52 10/10/51 41/83/43
f 12/12/53 11/11/52 41/83/43
f 13/13/54 12/12/53 41/83/43
f 14/14/55 13/13/54 41/83/43
f 15/15/56 14/14/55 41/83/43
f 16/16/57 15/15/56 41/83/43
f 17/17/58 16/16/57 41/83/43
f 18/18/59 17/17/58 41/83/43
f 19/19/60 18/18/59 41/83/43
f 20/20/61 19/19/60 41/83/43
f 1/1/42 20/20/61 41/83/43
s 3
f 21/81/62 22/80/63 42/84/64
f 22/80/63 23/79/65 42/84/64
f 23/79/65 24/78/66 42/84/64
f 24/78/66 25/77/67 42/84/64
f 25/77/67 26/76/68 42/84/64
f 26/76/68 27/75/69 42/84/64
f 27/75/69 28/74/70 42/84/64
f 28/74/70 29/73/71 42/84/64
f 29/73/71 30/72/72 42/84/64
f 30/72/72 31/71/73 42/84/64
f 31/71/73 32/70/74 42/84/64
f 32/70/74 33/69/75 42/84/64
f 33/69/75 34/68/76 42/84/64
f 34/68/76 35/67/77 42/84/64
f 35/67/77 36/66/78 42/84/64
f 36/66/78 37/65/79 42/84/64
f 37/65/79 38/64/80 42/84/64
f 38/64/80 39/63/81 42/84/64
f 39/63/81 40/82/82 42/84/64
f 40/82/82 21/81/62 42/84/64
