# This file uses centimeters as units for non-parametric coordinates.

mtllib mountains_2.mtl
g default
v -9.227849 -0.312346 -12.109321
v -13.209742 -0.312346 -8.127428
v -9.227849 -0.312346 -4.145535
v -5.245956 -0.312346 -8.127428
v -9.227849 5.570575 -8.127428
vt 0.500000 0.000000
vt 0.250000 0.250000
vt 0.500000 0.500000
vt 0.750000 0.250000
vt 0.250000 0.500000
vt 0.375000 0.500000
vt 0.500000 0.500000
vt 0.625000 0.500000
vt 0.750000 0.500000
vt 0.500000 1.000000
vn 0.000000 -1.000000 0.000000
vn 0.000000 -1.000000 0.000000
vn 0.000000 -1.000000 0.000000
vn 0.000000 -1.000000 0.000000
vn -0.637819 0.431712 -0.637819
vn -0.637819 0.431712 -0.637819
vn -0.637819 0.431712 -0.637819
vn -0.637819 0.431712 0.637819
vn -0.637819 0.431712 0.637819
vn -0.637819 0.431712 0.637819
vn 0.637819 0.431712 0.637819
vn 0.637819 0.431712 0.637819
vn 0.637819 0.431712 0.637819
vn 0.637819 0.431712 -0.637819
vn 0.637819 0.431712 -0.637819
vn 0.637819 0.431712 -0.637819
s off
g pPyramid9 group1
usemtl initialShadingGroup
f 1/1/1 4/4/2 3/3/3 2/2/4
f 1/5/5 2/6/6 5/10/7
f 2/6/8 3/7/9 5/10/10
f 3/7/11 4/8/12 5/10/13
f 4/8/14 1/9/15 5/10/16
g default
v -4.771147 -0.179716 -15.619690
v -13.226414 -0.179716 -11.442129
v -4.771148 -0.179716 -7.264568
v 3.684118 -0.179716 -11.442129
v -4.771148 3.997845 -11.442129
vt 0.500000 0.000000
vt 0.250000 0.250000
vt 0.500000 0.500000
vt 0.750000 0.250000
vt 0.250000 0.500000
vt 0.375000 0.500000
vt 0.500000 0.500000
vt 0.625000 0.500000
vt 0.750000 0.500000
vt 0.500000 1.000000
vn 0.000000 -1.000000 0.000000
vn 0.000000 -1.000000 0.000000
vn 0.000000 -1.000000 0.000000
vn 0.000000 -1.000000 0.000000
vn -0.329817 0.667540 -0.667541
vn -0.329817 0.667540 -0.667541
vn -0.329817 0.667540 -0.667541
vn -0.329817 0.667541 0.667540
vn -0.329817 0.667541 0.667540
vn -0.329817 0.667541 0.667540
vn 0.329817 0.667540 0.667540
vn 0.329817 0.667540 0.667540
vn 0.329817 0.667540 0.667540
vn 0.329817 0.667541 -0.667540
vn 0.329817 0.667541 -0.667540
vn 0.329817 0.667541 -0.667540
s off
g group1 pPyramid10
usemtl initialShadingGroup
f 6/11/17 9/14/18 8/13/19 7/12/20
f 6/15/21 7/16/22 10/20/23
f 7/16/24 8/17/25 10/20/26
f 8/17/27 9/18/28 10/20/29
f 9/18/30 6/19/31 10/20/32
g default
v -7.301603 -0.694795 -11.417723
v -10.295443 -0.694795 -8.423883
v -7.301603 -0.694795 -5.430042
v -4.307763 -0.694795 -8.423882
v -7.301603 5.121651 -8.423882
vt 0.500000 0.000000
vt 0.250000 0.250000
vt 0.500000 0.500000
vt 0.750000 0.250000
vt 0.250000 0.500000
vt 0.375000 0.500000
vt 0.500000 0.500000
vt 0.625000 0.500000
vt 0.750000 0.500000
vt 0.500000 1.000000
vn 0.000000 -1.000000 0.000000
vn 0.000000 -1.000000 0.000000
vn 0.000000 -1.000000 0.000000
vn 0.000000 -1.000000 0.000000
vn -0.664465 0.342013 -0.664465
vn -0.664465 0.342013 -0.664465
vn -0.664465 0.342013 -0.664465
vn -0.664465 0.342013 0.664465
vn -0.664465 0.342013 0.664465
vn -0.664465 0.342013 0.664465
vn 0.664465 0.342013 0.664465
vn 0.664465 0.342013 0.664465
vn 0.664465 0.342013 0.664465
vn 0.664465 0.342013 -0.664465
vn 0.664465 0.342013 -0.664465
vn 0.664465 0.342013 -0.664465
s off
g group1 pPyramid11
usemtl initialShadingGroup
f 11/21/33 14/24/34 13/23/35 12/22/36
f 11/25/37 12/26/38 15/30/39
f 12/26/40 13/27/41 15/30/42
f 13/27/43 14/28/44 15/30/45
f 14/28/46 11/29/47 15/30/48
g default
v -2.854029 -0.111072 -8.992364
v -4.379642 -0.111072 -7.466752
v -2.854030 -0.111072 -5.941140
v -1.328417 -0.111072 -7.466752
v -2.854029 2.905809 -7.466752
vt 0.500000 0.000000
vt 0.250000 0.250000
vt 0.500000 0.500000
vt 0.750000 0.250000
vt 0.250000 0.500000
vt 0.375000 0.500000
vt 0.500000 0.500000
vt 0.625000 0.500000
vt 0.750000 0.500000
vt 0.500000 1.000000
vn 0.000000 -1.000000 0.000000
vn 0.000000 -1.000000 0.000000
vn 0.000000 -1.000000 0.000000
vn 0.000000 -1.000000 0.000000
vn -0.665820 0.336700 -0.665820
vn -0.665820 0.336700 -0.665820
vn -0.665820 0.336700 -0.665820
vn -0.665820 0.336700 0.665820
vn -0.665820 0.336700 0.665820
vn -0.665820 0.336700 0.665820
vn 0.665820 0.336700 0.665820
vn 0.665820 0.336700 0.665820
vn 0.665820 0.336700 0.665820
vn 0.665820 0.336700 -0.665820
vn 0.665820 0.336700 -0.665820
vn 0.665820 0.336700 -0.665820
s off
g group1 pPyramid12
usemtl initialShadingGroup
f 16/31/49 19/34/50 18/33/51 17/32/52
f 16/35/53 17/36/54 20/40/55
f 17/36/56 18/37/57 20/40/58
f 18/37/59 19/38/60 20/40/61
f 19/38/62 16/39/63 20/40/64
g default
v -0.632760 -0.651305 -10.192255
v -3.248893 -0.270628 -9.431437
v -2.029008 -0.987653 -7.072269
v 0.587126 -1.368331 -7.833088
v -0.360516 3.953019 -7.683510
vt 0.500000 0.000000
vt 0.250000 0.250000
vt 0.500000 0.500000
vt 0.750000 0.250000
vt 0.250000 0.500000
vt 0.375000 0.500000
vt 0.500000 0.500000
vt 0.625000 0.500000
vt 0.750000 0.500000
vt 0.500000 1.000000
vn -0.195572 -0.961867 -0.191215
vn -0.195572 -0.961867 -0.191215
vn -0.195572 -0.961867 -0.191215
vn -0.195572 -0.961867 -0.191215
vn -0.180204 0.478817 -0.859221
vn -0.180204 0.478817 -0.859221
vn -0.180204 0.478817 -0.859221
vn -0.793338 0.331116 0.510859
vn -0.793338 0.331116 0.510859
vn -0.793338 0.331116 0.510859
vn 0.282300 0.023315 0.959043
vn 0.282300 0.023315 0.959043
vn 0.282300 0.023315 0.959043
vn 0.895434 0.171015 -0.411037
vn 0.895434 0.171015 -0.411037
vn 0.895434 0.171015 -0.411037
s off
g group1 pPyramid15
usemtl initialShadingGroup
f 21/41/65 24/44/66 23/43/67 22/42/68
f 21/45/69 22/46/70 25/50/71
f 22/46/72 23/47/73 25/50/74
f 23/47/75 24/48/76 25/50/77
f 24/48/78 21/49/79 25/50/80
g default
v 0.434690 -1.039094 -11.212216
v -1.509943 -1.039094 -9.267583
v 0.434690 -1.039094 -7.322950
v 2.379323 -1.039094 -9.267583
v 0.434690 0.905539 -9.267583
vt 0.500000 0.000000
vt 0.250000 0.250000
vt 0.500000 0.500000
vt 0.750000 0.250000
vt 0.250000 0.500000
vt 0.375000 0.500000
vt 0.500000 0.500000
vt 0.625000 0.500000
vt 0.750000 0.500000
vt 0.500000 1.000000
vn 0.000000 -1.000000 0.000000
vn 0.000000 -1.000000 0.000000
vn 0.000000 -1.000000 0.000000
vn 0.000000 -1.000000 0.000000
vn -0.577350 0.577350 -0.577350
vn -0.577350 0.577350 -0.577350
vn -0.577350 0.577350 -0.577350
vn -0.577350 0.577350 0.577350
vn -0.577350 0.577350 0.577350
vn -0.577350 0.577350 0.577350
vn 0.577350 0.577350 0.577350
vn 0.577350 0.577350 0.577350
vn 0.577350 0.577350 0.577350
vn 0.577350 0.577350 -0.577350
vn 0.577350 0.577350 -0.577350
vn 0.577350 0.577350 -0.577350
s off
g group1 pPyramid16
usemtl initialShadingGroup
f 26/51/81 29/54/82 28/53/83 27/52/84
f 26/55/85 27/56/86 30/60/87
f 27/56/88 28/57/89 30/60/90
f 28/57/91 29/58/92 30/60/93
f 29/58/94 26/59/95 30/60/96
g default
v -2.465023 -0.089145 -11.919425
v -4.864627 -0.089145 -9.915889
v -2.465024 -0.089145 -7.912353
v -0.065420 -0.089145 -9.915889
v -2.465023 4.690293 -9.915889
vt 0.500000 0.000000
vt 0.250000 0.250000
vt 0.500000 0.500000
vt 0.750000 0.250000
vt 0.250000 0.500000
vt 0.375000 0.500000
vt 0.500000 0.500000
vt 0.625000 0.500000
vt 0.750000 0.500000
vt 0.500000 1.000000
vn 0.000000 -1.000000 0.000000
vn 0.000000 -1.000000 0.000000
vn 0.000000 -1.000000 0.000000
vn 0.000000 -1.000000 0.000000
vn -0.610105 0.306315 -0.730714
vn -0.610105 0.306315 -0.730714
vn -0.610105 0.306315 -0.730714
vn -0.610105 0.306315 0.730714
vn -0.610105 0.306315 0.730714
vn -0.610105 0.306315 0.730714
vn 0.610105 0.306315 0.730714
vn 0.610105 0.306315 0.730714
vn 0.610105 0.306315 0.730714
vn 0.610105 0.306315 -0.730714
vn 0.610105 0.306315 -0.730714
vn 0.610105 0.306315 -0.730714
s off
g group1 pPyramid17
usemtl initialShadingGroup
f 31/61/97 34/64/98 33/63/99 32/62/100
f 31/65/101 32/66/102 35/70/103
f 32/66/104 33/67/105 35/70/106
f 33/67/107 34/68/108 35/70/109
f 34/68/110 31/69/111 35/70/112
g default
v -9.191807 -1.295706 -9.391491
v -9.639691 -0.511640 -5.234859
v -5.460042 -0.692171 -6.003547
v -5.012158 -1.476237 -10.160179
v -7.278941 4.423092 -8.714271
vt 0.500000 0.000000
vt 0.250000 0.250000
vt 0.500000 0.500000
vt 0.750000 0.250000
vt 0.250000 0.500000
vt 0.375000 0.500000
vt 0.500000 0.500000
vt 0.625000 0.500000
vt 0.750000 0.500000
vt 0.500000 1.000000
vn -0.008524 -0.982802 0.184467
vn -0.008524 -0.982802 0.184467
vn -0.008524 -0.982802 0.184467
vn -0.008524 -0.982802 0.184467
vn -0.929804 0.330249 -0.162483
vn -0.929804 0.330249 -0.162483
vn -0.929804 0.330249 -0.162483
vn 0.176896 0.509234 0.842252
vn 0.176896 0.509234 0.842252
vn 0.176896 0.509234 0.842252
vn 0.935713 0.351061 0.034604
vn 0.935713 0.351061 0.034604
vn 0.935713 0.351061 0.034604
vn -0.170986 0.172076 -0.970131
vn -0.170986 0.172076 -0.970131
vn -0.170986 0.172076 -0.970131
s off
g group1 pPyramid23
usemtl initialShadingGroup
f 36/71/113 39/74/114 38/73/115 37/72/116
f 36/75/117 37/76/118 40/80/119
f 37/76/120 38/77/121 40/80/122
f 38/77/123 39/78/124 40/80/125
f 39/78/126 36/79/127 40/80/128
g default
v -8.392445 -0.567091 -16.351912
v -11.609309 -0.567091 -13.135050
v -8.392446 -0.567091 -9.918186
v -5.175582 -0.567091 -13.135049
v -8.392445 6.006535 -13.135049
vt 0.500000 0.000000
vt 0.250000 0.250000
vt 0.500000 0.500000
vt 0.750000 0.250000
vt 0.250000 0.500000
vt 0.375000 0.500000
vt 0.500000 0.500000
vt 0.625000 0.500000
vt 0.750000 0.500000
vt 0.500000 1.000000
vn 0.000000 -1.000000 0.000000
vn 0.000000 -1.000000 0.000000
vn 0.000000 -1.000000 0.000000
vn 0.000000 -1.000000 0.000000
vn -0.668232 0.327005 -0.668232
vn -0.668232 0.327005 -0.668232
vn -0.668232 0.327005 -0.668232
vn -0.668232 0.327005 0.668232
vn -0.668232 0.327005 0.668232
vn -0.668232 0.327005 0.668232
vn 0.668232 0.327005 0.668232
vn 0.668232 0.327005 0.668232
vn 0.668232 0.327005 0.668232
vn 0.668232 0.327005 -0.668232
vn 0.668232 0.327005 -0.668232
vn 0.668232 0.327005 -0.668232
s off
g group1 pPyramid24
usemtl initialShadingGroup
f 41/81/129 44/84/130 43/83/131 42/82/132
f 41/85/133 42/86/134 45/90/135
f 42/86/136 43/87/137 45/90/138
f 43/87/139 44/88/140 45/90/141
f 44/88/142 41/89/143 45/90/144
g default
v -10.087359 -1.145380 -15.838895
v -11.310759 -1.145380 -11.666536
v -7.138400 -1.145380 -10.443137
v -5.915001 -1.145380 -14.615496
v -8.612880 6.332052 -13.141016
vt 0.500000 0.000000
vt 0.250000 0.250000
vt 0.500000 0.500000
vt 0.750000 0.250000
vt 0.250000 0.500000
vt 0.375000 0.500000
vt 0.500000 0.500000
vt 0.625000 0.500000
vt 0.750000 0.500000
vt 0.500000 1.000000
vn 0.000000 -1.000000 0.000000
vn 0.000000 -1.000000 0.000000
vn 0.000000 -1.000000 0.000000
vn 0.000000 -1.000000 0.000000
vn -0.921444 0.279182 -0.270182
vn -0.921444 0.279182 -0.270182
vn -0.921444 0.279182 -0.270182
vn -0.270182 0.279182 0.921444
vn -0.270182 0.279182 0.921444
vn -0.270182 0.279182 0.921444
vn 0.921444 0.279182 0.270181
vn 0.921444 0.279182 0.270181
vn 0.921444 0.279182 0.270181
vn 0.270182 0.279182 -0.921444
vn 0.270182 0.279182 -0.921444
vn 0.270182 0.279182 -0.921444
s off
g group1 pPyramid25
usemtl initialShadingGroup
f 46/91/145 49/94/146 48/93/147 47/92/148
f 46/95/149 47/96/150 50/100/151
f 47/96/152 48/97/153 50/100/154
f 48/97/155 49/98/156 50/100/157
f 49/98/158 46/99/159 50/100/160
g default
v -11.163048 -0.382147 -13.072989
v -14.462052 -0.382147 -9.773985
v -11.163048 -0.382147 -6.474980
v -7.864044 -0.382147 -9.773984
v -11.163048 5.380634 -9.773984
vt 0.500000 0.000000
vt 0.250000 0.250000
vt 0.500000 0.500000
vt 0.750000 0.250000
vt 0.250000 0.500000
vt 0.375000 0.500000
vt 0.500000 0.500000
vt 0.625000 0.500000
vt 0.750000 0.500000
vt 0.500000 1.000000
vn 0.000000 -1.000000 0.000000
vn 0.000000 -1.000000 0.000000
vn 0.000000 -1.000000 0.000000
vn 0.000000 -1.000000 0.000000
vn -0.655443 0.375220 -0.655443
vn -0.655443 0.375220 -0.655443
vn -0.655443 0.375220 -0.655443
vn -0.655443 0.375220 0.655443
vn -0.655443 0.375220 0.655443
vn -0.655443 0.375220 0.655443
vn 0.655443 0.375220 0.655443
vn 0.655443 0.375220 0.655443
vn 0.655443 0.375220 0.655443
vn 0.655443 0.375220 -0.655443
vn 0.655443 0.375220 -0.655443
vn 0.655443 0.375220 -0.655443
s off
g group1 pPyramid26
usemtl initialShadingGroup
f 51/101/161 54/104/162 53/103/163 52/102/164
f 51/105/165 52/106/166 55/110/167
f 52/106/168 53/107/169 55/110/170
f 53/107/171 54/108/172 55/110/173
f 54/108/174 51/109/175 55/110/176
