# This file uses centimeters as units for non-parametric coordinates.

mtllib mountains_4.mtl
g default
v 7.085547 -0.003966 -10.097091
v 6.378440 -0.003966 -9.389984
v 7.085547 -0.003966 -8.682877
v 7.792653 -0.003966 -9.389984
v 7.085547 0.703141 -9.389984
vt 0.500000 0.000000
vt 0.250000 0.250000
vt 0.500000 0.500000
vt 0.750000 0.250000
vt 0.250000 0.500000
vt 0.375000 0.500000
vt 0.500000 0.500000
vt 0.625000 0.500000
vt 0.750000 0.500000
vt 0.500000 1.000000
vn 0.000000 -1.000000 0.000000
vn 0.000000 -1.000000 0.000000
vn 0.000000 -1.000000 0.000000
vn 0.000000 -1.000000 0.000000
vn -0.577350 0.577350 -0.577350
vn -0.577350 0.577350 -0.577350
vn -0.577350 0.577350 -0.577350
vn -0.577350 0.577350 0.577350
vn -0.577350 0.577350 0.577350
vn -0.577350 0.577350 0.577350
vn 0.577350 0.577350 0.577350
vn 0.577350 0.577350 0.577350
vn 0.577350 0.577350 0.577350
vn 0.577350 0.577350 -0.577350
vn 0.577350 0.577350 -0.577350
vn 0.577350 0.577350 -0.577350
s off
g pPyramid21 group1
usemtl initialShadingGroup
f 1/1/1 4/4/2 3/3/3 2/2/4
f 1/5/5 2/6/6 5/10/7
f 2/6/8 3/7/9 5/10/10
f 3/7/11 4/8/12 5/10/13
f 4/8/14 1/9/15 5/10/16
g default
v 5.871509 -0.088112 -10.123010
v 5.655754 -0.088112 -9.146562
v 6.632201 -0.088112 -8.930807
v 6.847957 -0.088112 -9.907254
v 6.251855 1.330487 -9.526908
vt 0.500000 0.000000
vt 0.250000 0.250000
vt 0.500000 0.500000
vt 0.750000 0.250000
vt 0.250000 0.500000
vt 0.375000 0.500000
vt 0.500000 0.500000
vt 0.625000 0.500000
vt 0.750000 0.500000
vt 0.500000 1.000000
vn 0.000000 -1.000000 0.000000
vn 0.000000 -1.000000 0.000000
vn 0.000000 -1.000000 0.000000
vn 0.000000 -1.000000 0.000000
vn -0.920919 0.332417 -0.203486
vn -0.920919 0.332417 -0.203486
vn -0.920919 0.332417 -0.203486
vn -0.203486 0.332417 0.920919
vn -0.203486 0.332417 0.920919
vn -0.203486 0.332417 0.920919
vn 0.920919 0.332417 0.203486
vn 0.920919 0.332417 0.203486
vn 0.920919 0.332417 0.203486
vn 0.203486 0.332417 -0.920919
vn 0.203486 0.332417 -0.920919
vn 0.203486 0.332417 -0.920919
s off
g group1 pPyramid22
usemtl initialShadingGroup
f 6/11/17 9/14/18 8/13/19 7/12/20
f 6/15/21 7/16/22 10/20/23
f 7/16/24 8/17/25 10/20/26
f 8/17/27 9/18/28 10/20/29
f 9/18/30 6/19/31 10/20/32
